<svg id="Capa_1" data-name="Capa 1" xmlns="http://www.w3.org/2000/svg" viewBox="0 0 478.53 299.29">
  <defs>
    <style>
      .cls-1, .cls-2 {
        fill: #f2f2f2;
      }

      .cls-2 {
        stroke: #f2f2f2;
        stroke-miterlimit: 10;
      }
    </style>
  </defs>
  <title>logo</title>
  <g>
    <polygon class="cls-1" points="204.01 47.61 141.55 47.61 28.41 203.11 0 203.11 0 242.13 62.4 242.13 90.81 203.11 138.69 137.29 206.63 137.04 254.69 203.11 283.09 242.13 345.56 242.13 345.56 203.11 317.15 203.11 204.01 47.61"/>
    <polygon class="cls-1" points="450.17 203.11 431.79 177.86 431.79 90.03 392.78 90.03 392.78 124.24 367.5 89.51 305.08 89.56 288.41 112.45 319.6 155.32 352.74 155.05 387.72 203.11 387.66 203.11 416.07 242.13 478.53 242.13 478.53 203.11 450.17 203.11"/>
  </g>
  <path class="cls-1" d="M178.63,203.15a15.1,15.1,0,0,1,23.73,0l21.25-12.24a39.6,39.6,0,0,0-66.23,0Z" transform="translate(-17.7 -9.39)"/>
  <path class="cls-1" d="M188.31,227.35a15,15,0,0,1-11.85-20.45l-21.25-12.21a39.3,39.3,0,0,0,33.1,57.1V227.35Z" transform="translate(-17.7 -9.39)"/>
  <path class="cls-1" d="M225.77,194.68L204.53,206.9a15,15,0,0,1-11.87,20.45v24.44a39.45,39.45,0,0,0,37.39-39.32,39,39,0,0,0-4.29-17.78" transform="translate(-17.7 -9.39)"/>
  <g>
    <path class="cls-1" d="M20.32,308.28L34,276.93h0.79l13.65,31.36h-1l-4.9-11.22H26.2l-4.9,11.22h-1Zm14.09-30.08-7.86,18H42.19Z" transform="translate(-17.7 -9.39)"/>
    <path class="cls-1" d="M64.93,307.62a11.67,11.67,0,0,0,5.85-1.33,10.32,10.32,0,0,0,3.67-3.45,14.21,14.21,0,0,0,1.9-4.81,27,27,0,0,0,.55-5.43V276.93h0.88V292.6a27.56,27.56,0,0,1-.64,6A14.36,14.36,0,0,1,75,303.67a11.13,11.13,0,0,1-4,3.51A12.64,12.64,0,0,1,65,308.5a12.64,12.64,0,0,1-6.18-1.37,11,11,0,0,1-4-3.62,15,15,0,0,1-2.1-5.1,27.26,27.26,0,0,1-.62-5.81V276.93H53V292.6a27.37,27.37,0,0,0,.55,5.52,13.92,13.92,0,0,0,1.92,4.81,10.18,10.18,0,0,0,3.67,3.4A11.76,11.76,0,0,0,64.93,307.62Z" transform="translate(-17.7 -9.39)"/>
    <path class="cls-1" d="M107.68,277.81h-12v30.47H94.78V277.81h-12v-0.88h24.91v0.88Z" transform="translate(-17.7 -9.39)"/>
    <path class="cls-1" d="M123.84,308.5a12.83,12.83,0,0,1-5.94-1.37,15.48,15.48,0,0,1-4.62-3.58,16,16,0,0,1-3-5.08,16.82,16.82,0,0,1-1.06-5.87,16.31,16.31,0,0,1,1.13-6,16.79,16.79,0,0,1,3.09-5.08,14.86,14.86,0,0,1,4.64-3.51,13,13,0,0,1,5.76-1.3,12.71,12.71,0,0,1,5.92,1.39,15.13,15.13,0,0,1,4.62,3.64,16.84,16.84,0,0,1,3,5.1,16.61,16.61,0,0,1-3.16,16.87,15.11,15.11,0,0,1-4.62,3.49A12.83,12.83,0,0,1,123.84,308.5Zm-13.73-15.9a15.64,15.64,0,0,0,1,5.63A16.06,16.06,0,0,0,114,303a13.53,13.53,0,0,0,4.33,3.33,12.34,12.34,0,0,0,5.52,1.24,12.06,12.06,0,0,0,5.59-1.3,13.89,13.89,0,0,0,4.33-3.42,16,16,0,0,0,2.78-4.81,15.82,15.82,0,0,0-2.94-15.92,14.16,14.16,0,0,0-4.35-3.33,12.54,12.54,0,0,0-11,.07,14.16,14.16,0,0,0-4.35,3.42A16.08,16.08,0,0,0,110.11,292.6Z" transform="translate(-17.7 -9.39)"/>
    <path class="cls-1" d="M141.73,292.34A15.64,15.64,0,0,1,146,281.69a16.11,16.11,0,0,1,5-3.58,17.43,17.43,0,0,1,14.64.51,12.23,12.23,0,0,1,5,5L164,288.28a5.56,5.56,0,0,0-1.17-1.9,5.93,5.93,0,0,0-1.61-1.19,7,7,0,0,0-1.83-.62,10.07,10.07,0,0,0-1.83-.18,6.43,6.43,0,0,0-5.41,2.63,8.21,8.21,0,0,0-1.28,2.65,10.7,10.7,0,0,0-.42,2.94,10.09,10.09,0,0,0,.49,3.14,8.17,8.17,0,0,0,1.41,2.65,6.91,6.91,0,0,0,2.27,1.83,6.58,6.58,0,0,0,3,.68,8.61,8.61,0,0,0,1.81-.2,6.76,6.76,0,0,0,1.79-.66,6.07,6.07,0,0,0,1.55-1.19,5.29,5.29,0,0,0,1.08-1.79l7,4.2a8.94,8.94,0,0,1-2.14,3.09,13.6,13.6,0,0,1-3.27,2.3,17.36,17.36,0,0,1-3.93,1.41,18.12,18.12,0,0,1-4.09.49,14.54,14.54,0,0,1-6.38-1.39,16.17,16.17,0,0,1-5-3.69,16.77,16.77,0,0,1-3.25-5.21A16,16,0,0,1,141.73,292.34Z" transform="translate(-17.7 -9.39)"/>
    <path class="cls-1" d="M187.62,308.55a15.08,15.08,0,0,1-6.49-1.37,16.06,16.06,0,0,1-5-3.6,16.29,16.29,0,0,1-3.22-5.1,15.78,15.78,0,0,1-1.15-5.92,15.4,15.4,0,0,1,1.19-6,15.81,15.81,0,0,1,3.33-5.06,16.23,16.23,0,0,1,5.08-3.49,15.67,15.67,0,0,1,6.43-1.3,15.08,15.08,0,0,1,6.49,1.37,15.89,15.89,0,0,1,5,3.62,16.26,16.26,0,0,1,3.2,5.12,16,16,0,0,1,1.13,5.87,15.23,15.23,0,0,1-1.19,5.94,16.09,16.09,0,0,1-3.31,5,16.3,16.3,0,0,1-5.06,3.51A15.45,15.45,0,0,1,187.62,308.55Zm-7.11-15.9a10.67,10.67,0,0,0,.44,3.07,8,8,0,0,0,1.33,2.63,6.67,6.67,0,0,0,2.23,1.86,7.55,7.55,0,0,0,6.43,0,6.52,6.52,0,0,0,2.23-1.9,8.17,8.17,0,0,0,1.28-2.67,11.27,11.27,0,0,0,.42-3,10.69,10.69,0,0,0-.44-3.07,7.57,7.57,0,0,0-1.35-2.61,6.81,6.81,0,0,0-2.25-1.81,7.62,7.62,0,0,0-6.36,0,6.6,6.6,0,0,0-2.23,1.88,7.94,7.94,0,0,0-1.3,2.65A11,11,0,0,0,180.51,292.65Z" transform="translate(-17.7 -9.39)"/>
    <path class="cls-1" d="M215.88,292.87v15.41h-8.61V276.93H214l12.59,15.94V276.93h8.61v31.36h-6.85Z" transform="translate(-17.7 -9.39)"/>
    <path class="cls-1" d="M259.56,287.17a24,24,0,0,0-2.74-1.41,25.08,25.08,0,0,0-2.67-1,9.63,9.63,0,0,0-2.89-.46,4,4,0,0,0-1.83.35,1.24,1.24,0,0,0-.68,1.19,1.37,1.37,0,0,0,.4,1,3.77,3.77,0,0,0,1.15.73,14.4,14.4,0,0,0,1.83.64q1.08,0.31,2.45.75a32.31,32.31,0,0,1,3.91,1.46,12.17,12.17,0,0,1,3,1.88,7.25,7.25,0,0,1,1.9,2.63,9.52,9.52,0,0,1,.66,3.75,9.9,9.9,0,0,1-1,4.75,8.5,8.5,0,0,1-2.74,3.07,11.54,11.54,0,0,1-3.84,1.66,18.65,18.65,0,0,1-4.31.51,24.37,24.37,0,0,1-3.53-.26,30.57,30.57,0,0,1-3.6-.75,31.62,31.62,0,0,1-3.44-1.15,22,22,0,0,1-3.07-1.5l3.71-7.55a25.93,25.93,0,0,0,3.22,1.72,22.91,22.91,0,0,0,3.2,1.19,12.75,12.75,0,0,0,3.64.53,3.7,3.7,0,0,0,2-.38,1.15,1.15,0,0,0,.55-1,1.42,1.42,0,0,0-.55-1.13,5.07,5.07,0,0,0-1.52-.82q-1-.35-2.23-0.71t-2.67-.84a23,23,0,0,1-3.58-1.52,9.69,9.69,0,0,1-2.47-1.86,6.63,6.63,0,0,1-1.44-2.36,9.21,9.21,0,0,1-.46-3,10.54,10.54,0,0,1,.95-4.59,9.42,9.42,0,0,1,2.58-3.31,11.55,11.55,0,0,1,3.73-2,14.22,14.22,0,0,1,4.44-.68,16.87,16.87,0,0,1,3.36.33,27,27,0,0,1,3.16.84,30.29,30.29,0,0,1,2.85,1.1q1.32,0.6,2.38,1.13Z" transform="translate(-17.7 -9.39)"/>
    <path class="cls-1" d="M292.24,284.43h-9v23.85h-8.61V284.43h-9.05v-7.51h26.68v7.51Z" transform="translate(-17.7 -9.39)"/>
    <path class="cls-1" d="M295.38,308.28V276.93h14.4a9.53,9.53,0,0,1,4.24.95,11,11,0,0,1,3.33,2.47,11.53,11.53,0,0,1,2.19,3.49,10.46,10.46,0,0,1,.8,4,11.14,11.14,0,0,1-1.19,5.1,10.38,10.38,0,0,1-3.31,3.86l6.62,11.53h-9.72l-5.52-9.63H304v9.63h-8.61ZM304,291.15h5.43a1.9,1.9,0,0,0,1.48-.88,4,4,0,0,0,.68-2.47,3.55,3.55,0,0,0-.79-2.5,2.23,2.23,0,0,0-1.59-.86H304v6.71Z" transform="translate(-17.7 -9.39)"/>
    <path class="cls-1" d="M338.62,300.91a4.74,4.74,0,0,0,2.56-.66,5.26,5.26,0,0,0,1.72-1.74,8,8,0,0,0,1-2.5,13.82,13.82,0,0,0,.31-3V276.93h8.61V293a21.58,21.58,0,0,1-.84,6.12,13.29,13.29,0,0,1-2.61,4.92,12.32,12.32,0,0,1-4.44,3.27,15.34,15.34,0,0,1-6.29,1.19,15,15,0,0,1-6.43-1.26,12.33,12.33,0,0,1-4.39-3.38,13.58,13.58,0,0,1-2.52-4.92,21.7,21.7,0,0,1-.79-5.94V276.93h8.61V293a14.11,14.11,0,0,0,.31,3,8,8,0,0,0,1,2.52,5.13,5.13,0,0,0,1.7,1.72A4.75,4.75,0,0,0,338.62,300.91Z" transform="translate(-17.7 -9.39)"/>
    <path class="cls-1" d="M356,292.34a15.64,15.64,0,0,1,4.24-10.64,16.11,16.11,0,0,1,5-3.58,17.43,17.43,0,0,1,14.64.51,12.23,12.23,0,0,1,5,5l-6.58,4.68a5.55,5.55,0,0,0-1.17-1.9,5.94,5.94,0,0,0-1.61-1.19,6.94,6.94,0,0,0-1.83-.62,10.06,10.06,0,0,0-1.83-.18,6.43,6.43,0,0,0-5.41,2.63,8.21,8.21,0,0,0-1.28,2.65,10.7,10.7,0,0,0-.42,2.94,10.11,10.11,0,0,0,.49,3.14,8.16,8.16,0,0,0,1.41,2.65,6.91,6.91,0,0,0,2.27,1.83,6.58,6.58,0,0,0,3,.68,8.61,8.61,0,0,0,1.81-.2,6.77,6.77,0,0,0,1.79-.66,6.07,6.07,0,0,0,1.55-1.19,5.3,5.3,0,0,0,1.08-1.79l7,4.2a8.94,8.94,0,0,1-2.14,3.09,13.59,13.59,0,0,1-3.27,2.3,17.35,17.35,0,0,1-3.93,1.41,18.11,18.11,0,0,1-4.08.49,14.54,14.54,0,0,1-6.38-1.39,16.17,16.17,0,0,1-5-3.69,16.75,16.75,0,0,1-3.25-5.21A16,16,0,0,1,356,292.34Z" transform="translate(-17.7 -9.39)"/>
    <path class="cls-1" d="M386,292.34a15.64,15.64,0,0,1,4.24-10.64,16.11,16.11,0,0,1,5-3.58,17.43,17.43,0,0,1,14.64.51,12.23,12.23,0,0,1,5,5l-6.58,4.68a5.55,5.55,0,0,0-1.17-1.9,5.94,5.94,0,0,0-1.61-1.19,6.94,6.94,0,0,0-1.83-.62,10.06,10.06,0,0,0-1.83-.18,6.43,6.43,0,0,0-5.41,2.63,8.21,8.21,0,0,0-1.28,2.65,10.7,10.7,0,0,0-.42,2.94,10.11,10.11,0,0,0,.49,3.14,8.16,8.16,0,0,0,1.41,2.65,6.91,6.91,0,0,0,2.27,1.83,6.58,6.58,0,0,0,3,.68,8.61,8.61,0,0,0,1.81-.2,6.77,6.77,0,0,0,1.79-.66,6.07,6.07,0,0,0,1.55-1.19,5.3,5.3,0,0,0,1.08-1.79l7,4.2a8.94,8.94,0,0,1-2.14,3.09,13.59,13.59,0,0,1-3.27,2.3,17.35,17.35,0,0,1-3.93,1.41,18.11,18.11,0,0,1-4.08.49,14.54,14.54,0,0,1-6.38-1.39,16.17,16.17,0,0,1-5-3.69,16.75,16.75,0,0,1-3.25-5.21A16,16,0,0,1,386,292.34Z" transform="translate(-17.7 -9.39)"/>
    <path class="cls-1" d="M418.29,308.28V276.93h8.61v31.36h-8.61Z" transform="translate(-17.7 -9.39)"/>
    <path class="cls-1" d="M446.42,308.55a15.07,15.07,0,0,1-6.49-1.37,16.06,16.06,0,0,1-5-3.6,16.29,16.29,0,0,1-3.22-5.1,15.77,15.77,0,0,1-1.15-5.92,15.4,15.4,0,0,1,1.19-6,15.83,15.83,0,0,1,3.33-5.06,16.24,16.24,0,0,1,5.08-3.49,15.67,15.67,0,0,1,6.43-1.3,15.07,15.07,0,0,1,6.49,1.37,15.9,15.9,0,0,1,5,3.62,16.27,16.27,0,0,1,3.2,5.12,16,16,0,0,1,1.13,5.87,15.24,15.24,0,0,1-1.19,5.94,16.09,16.09,0,0,1-3.31,5,16.3,16.3,0,0,1-5.06,3.51A15.46,15.46,0,0,1,446.42,308.55Zm-7.11-15.9a10.66,10.66,0,0,0,.44,3.07,8,8,0,0,0,1.32,2.63,6.67,6.67,0,0,0,2.23,1.86,7.55,7.55,0,0,0,6.43,0,6.52,6.52,0,0,0,2.23-1.9,8.18,8.18,0,0,0,1.28-2.67,11.29,11.29,0,0,0,.42-3,10.69,10.69,0,0,0-.44-3.07,7.59,7.59,0,0,0-1.35-2.61,6.8,6.8,0,0,0-2.25-1.81,7.62,7.62,0,0,0-6.36,0A6.6,6.6,0,0,0,441,287a8,8,0,0,0-1.3,2.65A11,11,0,0,0,439.31,292.65Zm10.2-17-5.3-1.41,2.21-6.27h7.46Z" transform="translate(-17.7 -9.39)"/>
    <path class="cls-1" d="M474.69,292.87v15.41h-8.61V276.93h6.71l12.59,15.94V276.93H494v31.36h-6.85Z" transform="translate(-17.7 -9.39)"/>
  </g>
  <line class="cls-2" x1="393.78" y1="173.21" x2="393.78" y2="47.38"/>
  <line class="cls-2" x1="430.73" y1="173.08" x2="430.73" y2="47.25"/>
  <line class="cls-2" x1="398.86" y1="125.82" x2="398.86"/>
  <line class="cls-2" x1="425.79" y1="125.82" x2="425.79"/>
</svg>
